<svg width="20" height="20" viewBox="0 0 20 20" fill="none" xmlns="http://www.w3.org/2000/svg">
<path d="M16 0C13.8141 0 12.0312 1.75938 12 3.9375C12 3.95781 12 3.97969 12 4C12 5.475 12.7984 6.75625 13.9875 7.45C14.5781 7.79531 15.2672 8 16 8C18.2063 8 20 6.20625 20 4C20 1.79375 18.2063 0 16 0ZM11.225 4.3375L7.1375 6.3875C8.08906 7.2125 8.71406 8.4 8.7875 9.7375L12.925 7.6625C11.9594 6.85156 11.3203 5.67031 11.225 4.3375ZM4 6C1.79375 6 0 7.79375 0 10C0 12.2063 1.79375 14 4 14C4.82031 14 5.57656 13.75 6.2125 13.325C7.28594 12.6078 8 11.3891 8 10C8 8.56406 7.23594 7.30625 6.1 6.6C5.4875 6.21875 4.77188 6 4 6ZM8.7875 10.2625C8.71406 11.5984 8.1 12.7984 7.15 13.625L11.225 15.6625C11.3203 14.3297 11.9484 13.15 12.9125 12.3375L8.7875 10.2625ZM16 12C15.175 12 14.4125 12.2578 13.775 12.6875C12.7078 13.4062 12 14.6172 12 16C12 16.0063 12 16.0063 12 16.0125C11.9828 16.0141 11.9672 16.0234 11.95 16.025L12 16.05C12.0266 18.2328 13.8109 20 16 20C18.2063 20 20 18.2063 20 16C20 13.7937 18.2063 12 16 12Z" fill="black"/>
</svg>
