<svg width="13" height="15" viewBox="0 0 13 15" fill="none" xmlns="http://www.w3.org/2000/svg">
<path d="M2.10811 0C0.945135 0 0 0.877174 0 1.95652V13.0435C0 14.1228 0.945135 15 2.10811 15H9.13514C10.2981 15 11.2432 14.1228 11.2432 13.0435V10.7672C11.1139 10.8872 10.6688 11.4072 9.83784 11.413V13.0435C9.83784 13.4022 9.52162 13.6957 9.13514 13.6957H2.10811C1.72162 13.6957 1.40541 13.4022 1.40541 13.0435V1.95652C1.40541 1.59783 1.72162 1.30435 2.10811 1.30435H9.13514C9.52162 1.30435 9.83784 1.59783 9.83784 1.95652V3.58696C10.6709 3.59283 11.1178 4.11635 11.2432 4.23276V1.95652C11.2432 0.877174 10.2981 0 9.13514 0H2.10811ZM9.81725 4.56458C9.63736 4.56519 9.45811 4.62973 9.32179 4.75756C9.04844 5.01321 9.04976 5.42671 9.32522 5.68041L10.592 6.84783H5.25243C4.86454 6.84783 4.54973 7.14 4.54973 7.5C4.54973 7.86 4.86454 8.15217 5.25243 8.15217H10.592L9.32522 9.31959C9.04976 9.57361 9.04844 9.98615 9.32179 10.2418C9.45917 10.3703 9.63905 10.4348 9.82 10.4348C9.99918 10.4348 10.1788 10.3721 10.3155 10.2456L12.7921 7.96302C12.9249 7.84074 13 7.6738 13 7.5C13 7.3262 12.9249 7.15959 12.7921 7.03698L10.3155 4.75437C10.1777 4.62736 9.99714 4.56397 9.81725 4.56458Z" fill="black"/>
</svg>
