<svg width="20" height="20" viewBox="0 0 20 20" fill="none" xmlns="http://www.w3.org/2000/svg">
<path d="M10 0C4.48609 0 0 4.48609 0 10C0 15.5139 4.48609 20 10 20C15.5139 20 20 15.5139 20 10C20 4.48609 15.5139 0 10 0ZM10.7813 15.1891C10.7813 15.283 10.7187 15.3448 10.6257 15.3448H9.44043C9.34609 15.3448 9.28435 15.2826 9.28435 15.1891V13.8483C9.28435 13.7548 9.34652 13.6926 9.44043 13.6926H10.6257C10.7191 13.6926 10.7813 13.7552 10.7813 13.8483V15.1891ZM12.153 9.24696L11.1083 10.6817C10.7965 11.1026 10.7026 11.3209 10.7026 11.8509V12.3496C10.7026 12.443 10.6404 12.5052 10.547 12.5052H9.51783C9.42435 12.507 9.36217 12.4443 9.36217 12.3509V11.7117C9.36217 11.0874 9.50217 10.7604 9.82957 10.3078L10.8748 8.87304C11.42 8.12478 11.607 7.76609 11.607 7.23565C11.607 6.34696 10.9835 5.78565 10.0943 5.78565C9.2213 5.78565 8.66 6.31565 8.47304 7.26696C8.45739 7.36044 8.39522 7.40739 8.3013 7.39174L7.31913 7.22C7.22522 7.20435 7.1787 7.14217 7.19391 7.04826C7.42826 5.5513 8.50435 4.5687 10.1261 4.5687C11.8096 4.5687 12.9478 5.67565 12.9478 7.21956C12.9478 7.96826 12.6835 8.51391 12.153 9.24696Z" fill="black"/>
</svg>
