<svg width="20" height="20" viewBox="0 0 20 20" fill="none" xmlns="http://www.w3.org/2000/svg">
<path d="M1.42857 0C0.619048 0 0 0.619048 0 1.42857V18.5714C0 19.381 0.619048 20 1.42857 20H18.5714C19.381 20 20 19.381 20 18.5714V4.38058C20 4.23772 19.952 4.14286 19.8568 4.04762L15.9524 0.143229C15.8571 0.0479911 15.7623 0 15.6194 0H1.42857ZM3.80952 0.952381H15.2381V6.66667C15.2381 7.19048 14.8095 7.61905 14.2857 7.61905H4.7619C4.2381 7.61905 3.80952 7.19048 3.80952 6.66667V0.952381ZM11.4286 2.38095V6.19048H13.3333V2.38095H11.4286ZM4.7619 10.9524H15.2381C15.7619 10.9524 16.1905 11.381 16.1905 11.9048V19.0476H3.80952V11.9048C3.80952 11.381 4.2381 10.9524 4.7619 10.9524ZM1.42857 17.619H2.38095V18.5714H1.42857V17.619ZM17.619 17.619H18.5714V18.5714H17.619V17.619Z" fill="black"/>
</svg>
