<svg width="20" height="25" viewBox="0 0 20 25" fill="none" xmlns="http://www.w3.org/2000/svg">
<path d="M10 0C9.09955 0 8.28634 0.472416 7.15998 1.12647C5.70952 1.96876 3.72143 3.12255 0.356889 3.93824L0 4.02451V4.42843C0 19.7207 9.71095 24.8483 9.80913 24.898L10.0098 25L10.206 24.8892C10.3041 24.834 20 19.2112 20 4.42843V4.02451L19.6431 3.93824C16.2786 3.12255 14.2905 1.96876 12.84 1.12647C11.7137 0.472416 10.9005 0 10 0ZM10 5.47255C11.5 5.47255 12.7273 6.87765 12.7273 8.58431V9.48824H13.2271C13.7271 9.48824 14.0909 9.9402 14.0909 10.4422V15.5618C14.0909 16.0637 13.6816 16.5157 13.2271 16.5157H6.7729C6.2729 16.5157 5.90909 16.0639 5.90909 15.5118V10.4422C5.90909 9.9402 6.2729 9.48824 6.7729 9.48824H7.27273V8.58431C7.27273 6.87765 8.5 5.47255 10 5.47255ZM10 6.47647C9 6.47647 8.18182 7.4298 8.18182 8.58431V9.48824H11.8182V8.58431C11.8182 7.4298 11 6.47647 10 6.47647ZM10 11.998C9.63636 11.998 9.36346 12.2994 9.36346 12.701C9.36346 12.9018 9.45437 13.0524 9.59073 13.2029V13.8549C9.59073 14.1059 9.77273 14.3069 10 14.3069C10.2273 14.3069 10.4093 14.1059 10.4093 13.8549V13.2029C10.5456 13.0524 10.6365 12.9018 10.6365 12.701C10.6365 12.2994 10.3636 11.998 10 11.998Z" fill="black"/>
</svg>
